<svg id="visual" viewBox="0 0 900 600" width="900" height="600" xmlns="http://www.w3.org/2000/svg" xmlns:xlink="http://www.w3.org/1999/xlink" version="1.1"><rect x="0" y="0" width="900" height="600" fill="#002233"></rect><path d="M0 192L21.5 175C43 158 86 124 128.8 117C171.7 110 214.3 130 257.2 139.5C300 149 343 148 385.8 135.8C428.7 123.7 471.3 100.3 514.2 109.3C557 118.3 600 159.7 642.8 169.2C685.7 178.7 728.3 156.3 771.2 145.3C814 134.3 857 134.7 878.5 134.8L900 135L900 0L878.5 0C857 0 814 0 771.2 0C728.3 0 685.7 0 642.8 0C600 0 557 0 514.2 0C471.3 0 428.7 0 385.8 0C343 0 300 0 257.2 0C214.3 0 171.7 0 128.8 0C86 0 43 0 21.5 0L0 0Z" fill="#0066FF" stroke-linecap="round" stroke-linejoin="miter"></path></svg>