<svg id="visual" viewBox="0 0 900 600" width="900" height="600" xmlns="http://www.w3.org/2000/svg" xmlns:xlink="http://www.w3.org/1999/xlink" version="1.1"><rect x="0" y="0" width="900" height="600" fill="#002233"></rect><path d="M0 406L21.5 423C43 440 86 474 128.8 481C171.7 488 214.3 468 257.2 458.5C300 449 343 450 385.8 462.2C428.7 474.3 471.3 497.7 514.2 488.7C557 479.7 600 438.3 642.8 428.8C685.7 419.3 728.3 441.7 771.2 452.7C814 463.7 857 463.3 878.5 463.2L900 463L900 601L878.5 601C857 601 814 601 771.2 601C728.3 601 685.7 601 642.8 601C600 601 557 601 514.2 601C471.3 601 428.7 601 385.8 601C343 601 300 601 257.2 601C214.3 601 171.7 601 128.8 601C86 601 43 601 21.5 601L0 601Z" fill="#0066FF" stroke-linecap="round" stroke-linejoin="miter"></path></svg>